<!--Uploaded to: SVG Repo, www.svgrepo.com, Generator: SVG Repo Mixer Tools-->
<svg xmlns="http://www.w3.org/2000/svg" xml:space="preserve" id="_x3C_Layer_x3E_" version="1.1" viewBox="0 0 32 32">
  <style>
    .st17{fill:#455a64}
  </style>
  <g id="eos_crypto_1_">
    <path id="XMLID_38_" fill="rgb(229, 231, 235)" d="m22.5 10.5-6.5-9-6.5 9-3 14 9.5 6 9.5-6z"/>
    <g id="XMLID_62_">
      <g id="XMLID_34_">
        <path id="XMLID_801_" d="M16 31h-.3l-9.5-6a.5.5 0 0 1-.2-.6l3-14v-.2l6.6-9c.2-.3.6-.3.8 0l6.5 9v.2l3 14c.1.2 0 .4-.1.5l-9.5 6-.3.1zm-9-6.7 9 5.6 9-5.6-3-13.6-6-8.3-6 8.3-3 13.6z" class="st17"/>
      </g>
      <g id="XMLID_35_">
        <path id="XMLID_800_" d="M25.5 25c-.2 0-.3 0-.4-.2L16 9.5 7 24.8c-.2.2-.5.3-.8.1a.5.5 0 0 1-.1-.7l9.5-16c.2-.3.7-.3.8 0l9.5 16c.2.3 0 .6-.1.7l-.3.1z" class="st17"/>
      </g>
      <g id="XMLID_37_">
        <path id="XMLID_799_" d="M16 9a.5.5 0 0 1-.5-.5v-7c0-.3.2-.5.5-.5s.5.2.5.5v7c0 .3-.2.5-.5.5z" class="st17"/>
      </g>
      <g id="XMLID_36_">
        <path id="XMLID_798_" d="M25.5 25h-19c-.3 0-.5-.2-.5-.5s.2-.5.5-.5h19c.3 0 .5.2.5.5s-.2.5-.5.5z" class="st17"/>
      </g>
      <g id="XMLID_33_">
        <path id="XMLID_797_" d="M16 31a.5.5 0 0 1-.5-.3L9 10.6c0-.3 0-.6.3-.7.3 0 .6 0 .7.3L16 29l6-18.6a.5.5 0 0 1 1 .3l-6.5 20c0 .3-.3.4-.5.4z" class="st17"/>
      </g>
    </g>
  </g>
</svg>